<svg xmlns="http://www.w3.org/2000/svg"  viewBox="0 0 50 50" width="50px" height="50px"><path d="M 24.400391 2 C 21.386301 2.0142558 17.662252 2.2499696 14.546875 3.6738281 C 11.431498 5.0976866 8.9570312 7.9289237 8.9570312 12.5 C 8.9570312 15.021684 10.239732 17.326319 12.005859 19.46875 C 13.771986 21.611181 16.062883 23.633099 18.322266 25.603516 C 20.581648 27.573932 22.809607 29.493832 24.429688 31.333984 C 26.049768 33.174137 27 34.895527 27 36.417969 C 27 43.61356 20.275391 46.0625 20.275391 46.0625 A 1.0005662 1.0005662 0 1 0 20.974609 47.9375 C 20.974609 47.9375 29 44.870377 29 36.417969 C 29 34.11041 27.694436 32.013973 25.931641 30.011719 C 24.168846 28.009465 21.887836 26.060865 19.636719 24.097656 C 17.385601 22.134448 15.165576 20.156537 13.548828 18.195312 C 11.93208 16.234088 10.957031 14.330816 10.957031 12.5 C 10.957031 8.6000763 12.74833 6.6955321 15.376953 5.4941406 C 18.005576 4.2927491 21.504246 4.0137442 24.410156 4 C 26.700584 3.98905 29.072389 4.014994 29.923828 4 A 1.0001545 1.0001545 0 1 0 29.888672 2 C 29.150111 2.013006 26.711963 1.988949 24.400391 2 z M 39.039062 2 A 1.0001 1.0001 0 0 0 38.255859 2.3320312 L 33.802734 7.3007812 A 1.0001 1.0001 0 0 0 34.546875 8.96875 L 34.585938 8.96875 L 33.195312 10.269531 A 1.0001 1.0001 0 0 0 33.878906 12 L 34.552734 12 L 32.287109 14.298828 A 1.0001 1.0001 0 0 0 33 16 L 38 16 L 38 18 A 1.0001 1.0001 0 1 0 40 18 L 40 16 L 45 16 A 1.0001 1.0001 0 0 0 45.712891 14.298828 L 43.447266 12 L 44.121094 12 A 1.0001 1.0001 0 0 0 44.804688 10.269531 L 43.414062 8.96875 L 43.453125 8.96875 A 1.0001 1.0001 0 0 0 44.197266 7.3007812 L 39.744141 2.3320312 A 1.0001 1.0001 0 0 0 39.039062 2 z M 39 4.4980469 L 41.214844 6.96875 L 40.880859 6.96875 A 1.0001 1.0001 0 0 0 40.197266 8.6992188 L 41.587891 10 L 41.056641 10 A 1.0001 1.0001 0 0 0 40.345703 11.701172 L 42.611328 14 L 35.388672 14 L 37.654297 11.701172 A 1.0001 1.0001 0 0 0 36.943359 10 L 36.412109 10 L 37.802734 8.6992188 A 1.0001 1.0001 0 0 0 37.119141 6.96875 L 36.785156 6.96875 L 39 4.4980469 z M 26.181641 6.015625 C 24.143909 6.015625 22.635856 6.2753018 21.498047 6.765625 C 20.360238 7.2559482 19.582331 8.0314206 19.248047 8.9257812 C 18.913762 9.820142 19.021742 10.739836 19.302734 11.513672 C 19.583724 12.287508 20.034242 12.948304 20.542969 13.457031 C 23.242715 16.156777 29.59534 19.763591 35.365234 23.966797 C 38.250182 26.0684 40.962947 28.291767 42.914062 30.486328 C 44.865175 32.680889 46 34.813534 46 36.6875 C 46 43.946778 39.529297 46.054687 39.529297 46.054688 A 1.0001 1.0001 0 1 0 40.177734 47.945312 C 40.177734 47.945312 48 45.158222 48 36.6875 C 48 34.043466 46.525447 31.53547 44.410156 29.15625 C 42.294866 26.77703 39.484193 24.493632 36.541016 22.349609 C 30.65466 18.061565 24.132285 14.218223 21.957031 12.042969 C 21.657258 11.743196 21.346088 11.282961 21.181641 10.830078 C 21.017193 10.377195 20.995131 9.9639675 21.121094 9.6269531 C 21.247059 9.2899387 21.518309 8.9356612 22.289062 8.6035156 C 23.059817 8.2713701 24.319872 8.015625 26.181641 8.015625 C 28.648634 8.015625 30.90625 8.0410156 30.90625 8.0410156 A 1.0001 1.0001 0 1 0 30.927734 6.0429688 C 30.927734 6.0429688 28.662647 6.015625 26.181641 6.015625 z M 12.003906 23 A 1.0001 1.0001 0 0 0 11.28125 23.304688 L 4.5996094 30.228516 A 1.0001 1.0001 0 0 0 5.3203125 31.923828 L 6.8359375 31.923828 L 3.5957031 35.308594 A 1.0001 1.0001 0 0 0 4.3183594 37 L 6.5234375 37 L 2.2871094 41.298828 A 1.0001 1.0001 0 0 0 3 43 L 11 43 L 11 45.714844 A 1.0001 1.0001 0 1 0 13 45.714844 L 13 43 L 21 43 A 1.0001 1.0001 0 0 0 21.712891 41.298828 L 17.476562 37 L 19.681641 37 A 1.0001 1.0001 0 0 0 20.404297 35.308594 L 17.164062 31.923828 L 18.679688 31.923828 A 1.0001 1.0001 0 0 0 19.400391 30.228516 L 12.71875 23.304688 A 1.0001 1.0001 0 0 0 12.003906 23 z M 12 25.439453 L 16.326172 29.923828 L 14.822266 29.923828 A 1.0001 1.0001 0 0 0 14.099609 31.615234 L 17.339844 35 L 15.085938 35 A 1.0001 1.0001 0 0 0 14.373047 36.701172 L 18.609375 41 L 5.390625 41 L 9.6269531 36.701172 A 1.0001 1.0001 0 0 0 8.9140625 35 L 6.6601562 35 L 9.9003906 31.615234 A 1.0001 1.0001 0 0 0 9.1777344 29.923828 L 7.6738281 29.923828 L 12 25.439453 z"/></svg>